#tb 0: 1/1000
0,          0,          0,        0,    75264, bedd5d2725ffff06a50e23841bc2dfb8
0,         33,         33,        0,    75264, 8c363f68b0b30f507563516aa99e23ac
0,         66,         66,        0,    75264, 9cb7d51ca4439614dc3f5980507a4d32
0,        100,        100,        0,    75264, b393a18de28ab6b8d1c6afd67a7794e0
0,        133,        133,        0,    75264, 81f69ee1e3d89cb78cac192c352f7741
0,        166,        166,        0,    75264, aabb51f029a9a02e71524cf3500931e9
0,        200,        200,        0,    75264, 6581aec620c508d2b42ccceaa2c6044d
0,        233,        233,        0,    75264, 993cde759158c30dcf0f0a9fdcdfb0d8
0,        266,        266,        0,    75264, 85985ae8d35514d601800a06c8226625
0,        300,        300,        0,    75264, 0eba1d7c193e473586e4a5c87d0e0d21
